<?xml version="1.0" encoding="UTF-8" standalone="no"?>
<!DOCTYPE svg PUBLIC "-//W3C//DTD SVG 1.1//EN"
 "http://www.w3.org/Graphics/SVG/1.1/DTD/svg11.dtd">
<!-- Generated by graphviz version 2.40.1 (20161225.0304)
 -->
<!-- Title: dependencies Pages: 1 -->
<svg width="1788pt" height="284pt"
 viewBox="0.00 0.00 1788.00 284.00" xmlns="http://www.w3.org/2000/svg" xmlns:xlink="http://www.w3.org/1999/xlink">
<g id="graph0" class="graph" transform="scale(1 1) rotate(0) translate(4 280)">
<title>dependencies</title>
<polygon fill="#ffffff" stroke="transparent" points="-4,4 -4,-280 1784,-280 1784,4 -4,4"/>
<text text-anchor="start" x="869.0091" y="-42.4" font-family="sans-serif" font-weight="bold" font-size="14.00" fill="#000000">Legend</text>
<polygon fill="#ffffb3" stroke="transparent" points="656,-10 656,-30 676,-30 676,-10 656,-10"/>
<text text-anchor="start" x="679.629" y="-15.4" font-family="sans-serif" font-size="14.00" fill="#000000"> &#160;Declarations</text>
<polygon fill="#8dd3c7" stroke="transparent" points="769,-10 769,-30 789,-30 789,-10 769,-10"/>
<text text-anchor="start" x="792.7251" y="-15.4" font-family="sans-serif" font-size="14.00" fill="#000000"> &#160;Module</text>
<polygon fill="#80b1d3" stroke="transparent" points="855,-10 855,-30 875,-30 875,-10 855,-10"/>
<text text-anchor="start" x="878.7812" y="-15.4" font-family="sans-serif" font-size="14.00" fill="#000000"> &#160;Bootstrap</text>
<polygon fill="#fdb462" stroke="transparent" points="952,-10 952,-30 972,-30 972,-10 952,-10"/>
<text text-anchor="start" x="975.6732" y="-15.4" font-family="sans-serif" font-size="14.00" fill="#000000"> &#160;Providers</text>
<polygon fill="#fb8072" stroke="transparent" points="1048,-10 1048,-30 1068,-30 1068,-10 1048,-10"/>
<text text-anchor="start" x="1071.7258" y="-15.4" font-family="sans-serif" font-size="14.00" fill="#000000"> &#160;Exports</text>
<g id="clust1" class="cluster">
<title>cluster_AppModule</title>
<polygon fill="none" stroke="#000000" stroke-dasharray="1,5" points="8,-70 8,-268 1772,-268 1772,-70 8,-70"/>
</g>
<g id="clust2" class="cluster">
<title>cluster_AppModule_declarations</title>
<polygon fill="none" stroke="#000000" points="323,-78 323,-130 1764,-130 1764,-78 323,-78"/>
</g>
<g id="clust15" class="cluster">
<title>cluster_AppModule_bootstrap</title>
<polygon fill="none" stroke="#000000" points="823,-208 823,-260 947,-260 947,-208 823,-208"/>
</g>
<g id="clust16" class="cluster">
<title>cluster_AppModule_providers</title>
<polygon fill="none" stroke="#000000" points="16,-78 16,-130 315,-130 315,-78 16,-78"/>
</g>
<!-- AppComponent -->
<g id="node1" class="node">
<title>AppComponent</title>
<polygon fill="#ffffb3" stroke="#000000" points="1755.9399,-122 1650.0601,-122 1650.0601,-86 1755.9399,-86 1755.9399,-122"/>
<text text-anchor="middle" x="1703" y="-99.8" font-family="Times,serif" font-size="14.00" fill="#000000">AppComponent</text>
</g>
<!-- AppModule -->
<g id="node11" class="node">
<title>AppModule</title>
<polygon fill="#8dd3c7" stroke="#000000" points="926.6571,-187 923.6571,-191 902.6571,-191 899.6571,-187 843.3429,-187 843.3429,-151 926.6571,-151 926.6571,-187"/>
<text text-anchor="middle" x="885" y="-164.8" font-family="Times,serif" font-size="14.00" fill="#000000">AppModule</text>
</g>
<!-- AppComponent&#45;&gt;AppModule -->
<g id="edge1" class="edge">
<title>AppComponent&#45;&gt;AppModule</title>
<path fill="none" stroke="#000000" d="M1703,-122.2479C1703,-145.0179 1703,-181 1703,-181 1703,-181 936.6893,-181 936.6893,-181"/>
<polygon fill="#000000" stroke="#000000" points="936.6894,-177.5001 926.6893,-181 936.6893,-184.5001 936.6894,-177.5001"/>
</g>
<!-- HeaderComponent -->
<g id="node2" class="node">
<title>HeaderComponent</title>
<polygon fill="#ffffb3" stroke="#000000" points="1631.7437,-122 1510.2563,-122 1510.2563,-86 1631.7437,-86 1631.7437,-122"/>
<text text-anchor="middle" x="1571" y="-99.8" font-family="Times,serif" font-size="14.00" fill="#000000">HeaderComponent</text>
</g>
<!-- HeaderComponent&#45;&gt;AppModule -->
<g id="edge2" class="edge">
<title>HeaderComponent&#45;&gt;AppModule</title>
<path fill="none" stroke="#000000" d="M1571,-122.2843C1571,-143.3211 1571,-175 1571,-175 1571,-175 936.8797,-175 936.8797,-175"/>
<polygon fill="#000000" stroke="#000000" points="936.8798,-171.5001 926.8797,-175 936.8797,-178.5001 936.8798,-171.5001"/>
</g>
<!-- MainHeadComponent -->
<g id="node3" class="node">
<title>MainHeadComponent</title>
<polygon fill="#ffffb3" stroke="#000000" points="1492.4186,-122 1351.5814,-122 1351.5814,-86 1492.4186,-86 1492.4186,-122"/>
<text text-anchor="middle" x="1422" y="-99.8" font-family="Times,serif" font-size="14.00" fill="#000000">MainHeadComponent</text>
</g>
<!-- MainHeadComponent&#45;&gt;AppModule -->
<g id="edge3" class="edge">
<title>MainHeadComponent&#45;&gt;AppModule</title>
<path fill="none" stroke="#000000" d="M1422,-122.1061C1422,-141.3391 1422,-169 1422,-169 1422,-169 936.6906,-169 936.6906,-169"/>
<polygon fill="#000000" stroke="#000000" points="936.6907,-165.5001 926.6906,-169 936.6906,-172.5001 936.6907,-165.5001"/>
</g>
<!-- MainComponent -->
<g id="node4" class="node">
<title>MainComponent</title>
<polygon fill="#ffffb3" stroke="#000000" points="1333.3823,-122 1222.6177,-122 1222.6177,-86 1333.3823,-86 1333.3823,-122"/>
<text text-anchor="middle" x="1278" y="-99.8" font-family="Times,serif" font-size="14.00" fill="#000000">MainComponent</text>
</g>
<!-- MainComponent&#45;&gt;AppModule -->
<g id="edge4" class="edge">
<title>MainComponent&#45;&gt;AppModule</title>
<path fill="none" stroke="#000000" d="M1278,-122.0225C1278,-139.3734 1278,-163 1278,-163 1278,-163 936.6858,-163 936.6858,-163"/>
<polygon fill="#000000" stroke="#000000" points="936.6859,-159.5001 926.6858,-163 936.6858,-166.5001 936.6859,-159.5001"/>
</g>
<!-- MainBodyComponent -->
<g id="node5" class="node">
<title>MainBodyComponent</title>
<polygon fill="#ffffb3" stroke="#000000" points="1204.719,-122 1063.281,-122 1063.281,-86 1204.719,-86 1204.719,-122"/>
<text text-anchor="middle" x="1134" y="-99.8" font-family="Times,serif" font-size="14.00" fill="#000000">MainBodyComponent</text>
</g>
<!-- MainBodyComponent&#45;&gt;AppModule -->
<g id="edge5" class="edge">
<title>MainBodyComponent&#45;&gt;AppModule</title>
<path fill="none" stroke="#000000" d="M1134,-122.2396C1134,-137.5706 1134,-157 1134,-157 1134,-157 936.677,-157 936.677,-157"/>
<polygon fill="#000000" stroke="#000000" points="936.677,-153.5001 926.677,-157 936.677,-160.5001 936.677,-153.5001"/>
</g>
<!-- MiddleContentComponent -->
<g id="node6" class="node">
<title>MiddleContentComponent</title>
<polygon fill="#ffffb3" stroke="#000000" points="1045.1052,-122 878.8948,-122 878.8948,-86 1045.1052,-86 1045.1052,-122"/>
<text text-anchor="middle" x="962" y="-99.8" font-family="Times,serif" font-size="14.00" fill="#000000">MiddleContentComponent</text>
</g>
<!-- MiddleContentComponent&#45;&gt;AppModule -->
<g id="edge6" class="edge">
<title>MiddleContentComponent&#45;&gt;AppModule</title>
<path fill="none" stroke="#000000" d="M902.8878,-122.1061C902.8878,-122.1061 902.8878,-140.991 902.8878,-140.991"/>
<polygon fill="#000000" stroke="#000000" points="899.3879,-140.9909 902.8878,-150.991 906.3879,-140.991 899.3879,-140.9909"/>
</g>
<!-- ImageFilterPipe -->
<g id="node7" class="node">
<title>ImageFilterPipe</title>
<polygon fill="#ffffb3" stroke="#000000" points="861.198,-122 754.802,-122 754.802,-86 861.198,-86 861.198,-122"/>
<text text-anchor="middle" x="808" y="-99.8" font-family="Times,serif" font-size="14.00" fill="#000000">ImageFilterPipe</text>
</g>
<!-- ImageFilterPipe&#45;&gt;AppModule -->
<g id="edge7" class="edge">
<title>ImageFilterPipe&#45;&gt;AppModule</title>
<path fill="none" stroke="#000000" d="M852.1354,-122.1061C852.1354,-122.1061 852.1354,-140.991 852.1354,-140.991"/>
<polygon fill="#000000" stroke="#000000" points="848.6354,-140.9909 852.1354,-150.991 855.6354,-140.991 848.6354,-140.9909"/>
</g>
<!-- PanelComponent -->
<g id="node8" class="node">
<title>PanelComponent</title>
<polygon fill="#ffffb3" stroke="#000000" points="737.4356,-122 624.5644,-122 624.5644,-86 737.4356,-86 737.4356,-122"/>
<text text-anchor="middle" x="681" y="-99.8" font-family="Times,serif" font-size="14.00" fill="#000000">PanelComponent</text>
</g>
<!-- PanelComponent&#45;&gt;AppModule -->
<g id="edge8" class="edge">
<title>PanelComponent&#45;&gt;AppModule</title>
<path fill="none" stroke="#000000" d="M681,-122.2396C681,-137.5706 681,-157 681,-157 681,-157 833.2253,-157 833.2253,-157"/>
<polygon fill="#000000" stroke="#000000" points="833.2253,-160.5001 843.2253,-157 833.2253,-153.5001 833.2253,-160.5001"/>
</g>
<!-- AccordionComponent -->
<g id="node9" class="node">
<title>AccordionComponent</title>
<polygon fill="#ffffb3" stroke="#000000" points="607.42,-122 466.58,-122 466.58,-86 607.42,-86 607.42,-122"/>
<text text-anchor="middle" x="537" y="-99.8" font-family="Times,serif" font-size="14.00" fill="#000000">AccordionComponent</text>
</g>
<!-- AccordionComponent&#45;&gt;AppModule -->
<g id="edge9" class="edge">
<title>AccordionComponent&#45;&gt;AppModule</title>
<path fill="none" stroke="#000000" d="M537,-122.0225C537,-139.3734 537,-163 537,-163 537,-163 833.0231,-163 833.0231,-163"/>
<polygon fill="#000000" stroke="#000000" points="833.0231,-166.5001 843.0231,-163 833.023,-159.5001 833.0231,-166.5001"/>
</g>
<!-- FooterComponent -->
<g id="node10" class="node">
<title>FooterComponent</title>
<polygon fill="#ffffb3" stroke="#000000" points="448.8809,-122 331.1191,-122 331.1191,-86 448.8809,-86 448.8809,-122"/>
<text text-anchor="middle" x="390" y="-99.8" font-family="Times,serif" font-size="14.00" fill="#000000">FooterComponent</text>
</g>
<!-- FooterComponent&#45;&gt;AppModule -->
<g id="edge10" class="edge">
<title>FooterComponent&#45;&gt;AppModule</title>
<path fill="none" stroke="#000000" d="M390,-122.1061C390,-141.3391 390,-169 390,-169 390,-169 833.2232,-169 833.2232,-169"/>
<polygon fill="#000000" stroke="#000000" points="833.2232,-172.5001 843.2232,-169 833.2232,-165.5001 833.2232,-172.5001"/>
</g>
<!-- AppComponent  -->
<g id="node12" class="node">
<title>AppComponent </title>
<polygon fill="#80b1d3" stroke="#000000" points="939.439,-252 830.561,-252 830.561,-216 939.439,-216 939.439,-252"/>
<text text-anchor="middle" x="885" y="-229.8" font-family="Times,serif" font-size="14.00" fill="#000000">AppComponent </text>
</g>
<!-- AppModule&#45;&gt;AppComponent  -->
<g id="edge11" class="edge">
<title>AppModule&#45;&gt;AppComponent </title>
<path fill="none" stroke="#000000" stroke-dasharray="1,5" d="M885,-187.1061C885,-187.1061 885,-205.991 885,-205.991"/>
<polygon fill="#000000" stroke="#000000" points="881.5001,-205.9909 885,-215.991 888.5001,-205.991 881.5001,-205.9909"/>
</g>
<!-- LanguageService -->
<g id="node13" class="node">
<title>LanguageService</title>
<ellipse fill="#fdb462" stroke="#000000" cx="229" cy="-104" rx="78.1308" ry="18"/>
<text text-anchor="middle" x="229" y="-99.8" font-family="Times,serif" font-size="14.00" fill="#000000">LanguageService</text>
</g>
<!-- LanguageService&#45;&gt;AppModule -->
<g id="edge12" class="edge">
<title>LanguageService&#45;&gt;AppModule</title>
<path fill="none" stroke="#000000" d="M229,-122.2843C229,-143.3211 229,-175 229,-175 229,-175 833.2168,-175 833.2168,-175"/>
<polygon fill="#000000" stroke="#000000" points="833.2168,-178.5001 843.2168,-175 833.2168,-171.5001 833.2168,-178.5001"/>
</g>
<!-- ApiService -->
<g id="node14" class="node">
<title>ApiService</title>
<ellipse fill="#fdb462" stroke="#000000" cx="78" cy="-104" rx="54.4508" ry="18"/>
<text text-anchor="middle" x="78" y="-99.8" font-family="Times,serif" font-size="14.00" fill="#000000">ApiService</text>
</g>
<!-- ApiService&#45;&gt;AppModule -->
<g id="edge13" class="edge">
<title>ApiService&#45;&gt;AppModule</title>
<path fill="none" stroke="#000000" d="M78,-122.2479C78,-145.0179 78,-181 78,-181 78,-181 833.3115,-181 833.3115,-181"/>
<polygon fill="#000000" stroke="#000000" points="833.3116,-184.5001 843.3115,-181 833.3115,-177.5001 833.3116,-184.5001"/>
</g>
</g>
</svg>
